# xmcd
#
# Track frame offsets:
#	150
#	21961
#	35845
#	52345
#	75518
#	93271
#	109416
#	121066
#	127013
#	145162
#	155457
#	166028
#	180089
#	189853
#	200868
#	210050
#	217494
#	227300
#	241033
#	250890
#	263628
#	276020
#	287933
#	296091
#	316320
#
# Disc length: 4443 seconds
#
# Revision: 1
# Processed by: cddbd v1.4PL0 Copyright (c) Steve Scherf et al.
# Submitted via: audiograbber 1.80
#
DISCID=67115919
DTITLE=Simon and Garfunkel - Grand Collection
DYEAR=1900
DGENRE=
TTITLE0=Bridge Over Troubled Water
TTITLE1=El Condor Pasa (If I Could)
TTITLE2=So Long, Frank Lloyd Wright
TTITLE3=The Boxer
TTITLE4=The Only Living Boy In New York
TTITLE5=America
TTITLE6=Old Friends
TTITLE7=Bookends Theme
TTITLE8=Mrs. Robinson
TTITLE9=A Hazy Shade Of Winter
TTITLE10=At The Zoo
TTITLE11=Scarborough Fair - Canticle
TTITLE12=Cloudy
TTITLE13=Homeward Bound
TTITLE14=For Emily, Whenever I May Find Her
TTITLE15=The 59th Street Bridge Song (Feelin' Groovy)
TTITLE16=Flowers Never Bend With The Rainfall
TTITLE17=The Sound Of Silence
TTITLE18=Wednesday Morning 3 A.M.
TTITLE19=I Am A Rock
TTITLE20=Why Don't You Write Me
TTITLE21=Bye Bye Love
TTITLE22=Song For The Asking
TTITLE23=When A Man Loves A Woman
TTITLE24=All I Know
EXTD=
EXTT0=
EXTT1=
EXTT2=
EXTT3=
EXTT4=
EXTT5=
EXTT6=
EXTT7=
EXTT8=
EXTT9=
EXTT10=
EXTT11=
EXTT12=
EXTT13=
EXTT14=
EXTT15=
EXTT16=
EXTT17=
EXTT18=
EXTT19=
EXTT20=
EXTT21=
EXTT22=
EXTT23=
EXTT24=
PLAYORDER=
